<svg width="26" height="26" viewBox="0 0 26 26" fill="none" xmlns="http://www.w3.org/2000/svg">
<rect x="2.75293" y="2.94098" width="20.7773" height="20.7773" fill="white"/>
<path d="M21.1235 0.86322H5.22612C2.71225 0.86322 0.674805 2.9012 0.674805 5.41508V21.2442C0.674805 23.7586 2.71225 25.796 5.22612 25.796H21.1235C23.6368 25.796 25.6748 23.758 25.6748 21.2442V5.41508C25.6753 2.9012 23.6374 0.86322 21.1235 0.86322ZM21.2753 11.2038L12.6761 19.8029C12.3114 20.1682 11.8165 20.3731 11.3005 20.3731C10.7845 20.3731 10.2896 20.1677 9.92487 19.8029L5.66299 15.541C4.90362 14.7811 4.90362 13.5497 5.66353 12.7892C6.02831 12.4244 6.52263 12.2196 7.03863 12.2196C7.55463 12.2196 8.04895 12.4244 8.41373 12.7892L10.9536 15.3297C11.0458 15.4218 11.171 15.4738 11.3011 15.4738C11.4311 15.4738 11.5563 15.4218 11.6485 15.3297L18.5245 8.45309C18.8898 8.08831 19.3842 7.88288 19.9007 7.88288C20.4162 7.88343 20.911 8.08831 21.2758 8.45309C22.0352 9.21299 22.0352 10.4445 21.2753 11.2038Z" fill="#1670F8"/>
</svg>
