<svg width="56" height="33" viewBox="0 0 56 33" fill="none" xmlns="http://www.w3.org/2000/svg">
<path d="M26.1625 0.201168C23.5266 0.912107 21.5688 2.85898 20.8359 5.50586C20.5953 6.35898 20.475 11.2043 20.6609 12.5715C20.8797 14.2121 21.7328 15.5902 23.0125 16.3887C23.3516 16.5965 23.625 16.7934 23.625 16.8262C23.625 16.859 22.9688 17.209 22.1812 17.6137L20.7266 18.3355L18.2437 17.0559L15.7609 15.7871L16.1109 15.5137C16.7016 15.0543 17.1609 14.4965 17.4453 13.9277C17.8609 13.0637 17.9703 12.123 17.9156 9.72773C17.8609 7.75898 17.8391 7.50742 17.5656 6.71992C16.7234 4.24804 14.6016 2.71679 12.0312 2.71679C9.48281 2.71679 7.35 4.24804 6.475 6.69805C6.2125 7.40898 6.19062 7.66055 6.14687 9.77148C6.10313 12.2871 6.17969 13.0527 6.61719 13.9387C6.89062 14.5074 7.48125 15.1965 8.00625 15.5793L8.3125 15.7871L5.65469 17.1543C3.11719 18.4559 2.975 18.5543 2.12188 19.3965C1.41094 20.1074 1.1375 20.4684 0.776563 21.223C0.13125 22.5574 0 23.2793 0 25.7512C0 27.7855 0.0109375 27.8402 0.251563 28.0699L0.503125 28.3105H6.54063H12.5781V30.334C12.5781 32.3465 12.5781 32.3684 12.8516 32.6309L13.1141 32.9043H28H42.8859L43.1484 32.6309C43.4219 32.3684 43.4219 32.3465 43.4219 30.334V28.3105H49.4703H55.5297L55.7703 28.048C56.0219 27.7855 56.0219 27.7637 55.9781 25.3902C55.9344 23.2684 55.9016 22.9293 55.6828 22.2949C55.3 21.1793 54.8187 20.3699 54.0641 19.5605C53.2219 18.6527 52.9375 18.4668 50.0172 16.9684L47.6875 15.7652L48.1797 15.4043C48.7375 14.9887 49.3391 14.1684 49.6234 13.4355C49.7875 13.009 49.8203 12.5605 49.8203 10.209C49.8203 7.54023 49.8094 7.45273 49.5359 6.69805C48.2672 3.21992 44.4391 1.69961 41.1906 3.39492C39.8781 4.08398 38.6422 5.64804 38.2703 7.11367C38.0953 7.80273 38.0187 11.7074 38.15 12.6043C38.3469 13.8184 38.9047 14.759 39.8891 15.5137L40.25 15.7871L37.7562 17.0668L35.2734 18.3355L33.8297 17.6137C33.0312 17.209 32.375 16.859 32.3859 16.8262C32.3859 16.7934 32.6812 16.5855 33.0422 16.3449C34.2234 15.5902 35.1094 14.1684 35.3281 12.7246C35.4594 11.7621 35.4594 7.51836 35.3281 6.45742C35.1094 4.78398 34.4312 3.38398 33.25 2.16992C32.4188 1.32773 31.4781 0.748043 30.3078 0.343357C29.1594 -0.0503922 27.3219 -0.116016 26.1625 0.201168ZM29.225 1.63398C30.7563 1.95117 32.3859 3.15429 33.1078 4.52148C33.8078 5.85586 33.8516 6.16211 33.8516 9.60742C33.8516 12.5934 33.8406 12.7465 33.6 13.3371C33.25 14.2121 32.6156 14.8902 31.7406 15.3168L31.0078 15.6777H28H24.9922L24.3797 15.3934C23.1437 14.8137 22.4328 13.873 22.2031 12.5277C21.9953 11.3793 22.1156 6.5668 22.3672 5.77929C23.0125 3.72305 24.6313 2.14804 26.6 1.66679C27.3328 1.49179 28.4703 1.48086 29.225 1.63398ZM13.9125 4.66367C15.2141 5.29804 16.0781 6.52304 16.3188 8.04336C16.3734 8.43711 16.4062 9.66211 16.3844 10.7449C16.3516 12.7027 16.3406 12.7355 16.0234 13.3152C15.6625 13.9824 15.0609 14.4746 14.4047 14.6496C14.1422 14.7152 13.1031 14.748 11.7688 14.7262C9.58125 14.6934 9.57031 14.6934 9.04531 14.3871C8.38906 14.0043 7.92969 13.3699 7.77656 12.659C7.62344 11.9699 7.62344 8.62304 7.76562 7.85742C8.07187 6.24961 9.14375 4.98086 10.6422 4.44492C11.0797 4.2918 11.4516 4.24804 12.2063 4.28086C13.0703 4.30273 13.3 4.35742 13.9125 4.66367ZM45.85 4.66367C47.0859 5.26523 47.9719 6.45742 48.2344 7.85742C48.3766 8.62304 48.3766 11.9699 48.2234 12.659C48.0703 13.3699 47.6109 14.0043 46.9547 14.3871C46.4297 14.6934 46.4188 14.6934 44.2313 14.7262C42.8969 14.748 41.8578 14.7152 41.5953 14.6496C40.9391 14.4746 40.3375 13.9824 39.9766 13.3152C39.6484 12.7246 39.6484 12.7137 39.6156 10.734C39.5938 9.65117 39.6266 8.42617 39.6812 8.03242C39.9547 6.31523 41.0156 5.00273 42.5797 4.44492C43.0172 4.2918 43.3891 4.24804 44.1437 4.28086C45.0078 4.30273 45.2375 4.35742 45.85 4.66367ZM16.1875 17.7449L19.0641 19.2105L18.0359 19.7246C17.4672 20.009 16.7125 20.4465 16.3516 20.709C14.6453 21.923 13.3656 23.859 12.8406 26.0137L12.6547 26.7793H7.09844H1.53125V25.2699C1.53125 22.8746 1.91406 21.7809 3.21563 20.4793C3.95937 19.7465 4.15625 19.6262 7.32812 18.0074L10.6641 16.3012L11.9875 16.2902L13.3219 16.2793L16.1875 17.7449ZM48.6391 17.9965C51.8438 19.6262 52.0406 19.7465 52.7844 20.4902C54.0859 21.7809 54.4688 22.8746 54.4688 25.2699V26.7793H48.8906H43.3125L43.2469 26.473C43.0391 25.5652 42.9516 25.248 42.7437 24.7012C42.1531 23.2027 40.9281 21.6168 39.6594 20.7199C39.2984 20.4574 38.5328 20.009 37.9641 19.7246L36.9469 19.1996L39.4953 17.909C40.9062 17.209 42.175 16.5527 42.3281 16.4543C42.5359 16.323 42.9188 16.2793 43.9359 16.2793H45.2812L48.6391 17.9965ZM34.2234 19.5277L38.6641 21.7918L39.6047 22.7324C40.3594 23.4762 40.6328 23.848 40.9937 24.5918C41.7047 26.0465 41.8031 26.5277 41.8578 29.098L41.9125 31.373H28H14.0875L14.1422 29.098C14.1969 26.5277 14.2953 26.0465 15.0062 24.5918C15.3672 23.848 15.6406 23.4762 16.3953 22.7215C17.3031 21.8246 17.4125 21.748 19.6328 20.6324C20.9016 19.9871 22.8922 18.9699 24.0625 18.3684L26.1953 17.2746L27.9891 17.2637H29.7828L34.2234 19.5277Z" fill="white"/>
</svg>
